<svg xmlns="http://www.w3.org/2000/svg" width="37.576" height="34.693" viewBox="0 0 37.576 34.693">
    <defs>
        <style>
            .cls-1{fill:#f15758}
        </style>
    </defs>
    <path id="Path_9601" d="M-425.142-48.081a.721.721 0 0 1-.486-.188l-12.612-11.445a16.983 16.983 0 0 1-5.2-8.682 10.754 10.754 0 0 1-.32-3.959c.548-6.038 4.822-10.419 10.17-10.419a9.744 9.744 0 0 1 8.454 4.992 10.111 10.111 0 0 1 8.662-4.991c5.348 0 9.622 4.38 10.17 10.419a10.752 10.752 0 0 1-.32 3.959 16.987 16.987 0 0 1-5.2 8.683l-12.832 11.448a.724.724 0 0 1-.486.183zm-8.45-33.247c-4.591 0-8.263 3.84-8.733 9.13a.692.692 0 0 1-.01.073 9.385 9.385 0 0 0 .3 3.4 15.537 15.537 0 0 0 4.767 7.943l12.13 11.009 12.338-11.014a15.536 15.536 0 0 0 4.763-7.94 9.341 9.341 0 0 0 .3-3.4c-.479-5.359-4.152-9.2-8.742-9.2a8.731 8.731 0 0 0-8 5.431.722.722 0 0 1-.665.442.722.722 0 0 1-.666-.442 8.472 8.472 0 0 0-7.783-5.432z" class="cls-1" data-name="Path 9601" transform="translate(443.822 82.774)"/>
</svg>
