<svg xmlns="http://www.w3.org/2000/svg" id="Group_3313" width="22.223" height="22.726" data-name="Group 3313" viewBox="0 0 22.223 22.726">
    <defs>
        <style>
            .cls-1,.cls-3{fill:#fff}.cls-2{clip-path:url(#clip-path)}.cls-3{fill-rule:evenodd}
        </style>
        <clipPath id="clip-path">
            <path id="Rectangle_17" d="M0 0h22.223v22.726H0z" class="cls-1" data-name="Rectangle 17"/>
        </clipPath>
    </defs>
    <g id="Group_12" data-name="Group 12">
        <g id="Group_11" class="cls-2" data-name="Group 11">
            <path id="Path_12" d="M3.171 2.444L.644 1.177a.448.448 0 0 1-.2-.592.443.443 0 0 1 .6-.2l2.693 1.35a.439.439 0 0 1 .271.337l.586 3.3h10.961a.442.442 0 1 1 0 .885H4.753L6.6 16.619h1.422a.442.442 0 1 1 0 .885H6.75l.227 1.283a2.1 2.1 0 0 1 1.98 1.659h7.472a2.1 2.1 0 1 1 0 .885H8.957A2.1 2.1 0 1 1 6.1 18.942q-1.46-8.255-2.931-16.5zm8.4 15.06h7.538a1.843 1.843 0 0 0 1.333-.559 2.644 2.644 0 0 0 .691-1.4l1.4-7.915a1.6 1.6 0 0 0 .022-.277 1.936 1.936 0 0 0-.531-1.278 2.206 2.206 0 0 0-1.206-.68 2.023 2.023 0 0 0-.315-.028H19.1a.442.442 0 0 0 0 .885h1.41a.751.751 0 0 1 .16.017 1.284 1.284 0 0 1 .7.4 1.04 1.04 0 0 1 .3.68.988.988 0 0 1-.011.127l-1.4 7.915a1.746 1.746 0 0 1-.442.924.98.98 0 0 1-.708.3h-7.536a.442.442 0 1 0 0 .885zM9.8 16.619a.442.442 0 1 0 .442.442.444.444 0 0 0-.442-.442zm7.53-11.244a.442.442 0 1 0 .442.442.444.444 0 0 0-.442-.442zM9.4 8.224a2.537 2.537 0 0 0 0 3.584l3.457 3.457a.444.444 0 0 0 .625 0l3.457-3.457a2.534 2.534 0 0 0-3.584-3.584l-.188.188-.188-.188a2.534 2.534 0 0 0-1.792-.741 2.508 2.508 0 0 0-1.787.741zm1.792.144a1.65 1.65 0 0 0-1.167 2.815l3.147 3.147 3.147-3.147a1.65 1.65 0 0 0-2.334-2.334l-.5.5a.444.444 0 0 1-.625 0l-.5-.5a1.663 1.663 0 0 0-1.173-.481zm8.152 11.659a1.215 1.215 0 1 0 .354.857 1.186 1.186 0 0 0-.354-.857zm-11.581 0a1.208 1.208 0 0 0-.857-.354 1.222 1.222 0 0 0-.857.354 1.211 1.211 0 0 0 .851 2.068 1.222 1.222 0 0 0 .857-.354 1.208 1.208 0 0 0 .354-.857 1.232 1.232 0 0 0-.354-.857zm0 0" class="cls-3" data-name="Path 12" transform="translate(-.378 -.32)"/>
        </g>
    </g>
</svg>
