<svg xmlns="http://www.w3.org/2000/svg" viewBox="0 0 98 98">
    <defs>
        <style>
            .cls-1{opacity:.59}.cls-2{fill:#f15758}
        </style>
    </defs>
    <g id="Group_3261" class="cls-1" data-name="Group 3261">
        <path id="Path_9574" d="M49 0a49 49 0 1 0 49 49A49.031 49.031 0 0 0 49 0zm3.762 90.475V87.15a3.675 3.675 0 0 0-7.35 0v3.325a41.766 41.766 0 0 1-37.8-37.888h3.15a3.675 3.675 0 0 0 0-7.35h-3.15A41.655 41.655 0 0 1 45.325 7.613v3.062a3.675 3.675 0 0 0 7.35 0V7.612a41.578 41.578 0 0 1 37.713 37.625h-3.15a3.675 3.675 0 0 0 0 7.35h3.15a41.369 41.369 0 0 1-37.626 37.888z" class="cls-2" data-name="Path 9574"/>
        <path id="Path_9575" d="M74.692 28.579L52.817 51.592h-.087a2.423 2.423 0 0 0-.788.087L33.567 37.854a2.764 2.764 0 0 0-3.85.525 2.687 2.687 0 0 0 .525 3.85l18.375 13.825a4.162 4.162 0 0 0 8.313-.35v-.35L78.8 32.342a2.772 2.772 0 0 0-.087-3.937 3.064 3.064 0 0 0-4.021.174z" class="cls-2" data-name="Path 9575" transform="translate(-3.642 -3.467)"/>
    </g>
</svg>
