<svg xmlns="http://www.w3.org/2000/svg" width="16.607" height="11.806" viewBox="0 0 16.607 11.806">
    <defs>
        <style>
            .cls-1{fill:#fef6c5}
        </style>
    </defs>
    <g id="Group_3370" data-name="Group 3370">
        <path id="Path_9606" d="M311.433 398.929a.265.265 0 0 1-.183-.073l-3.08-2.889a.272.272 0 0 1-.013-.38.269.269 0 0 1 .38-.01l3.082 2.889a.268.268 0 0 1-.185.463zm0 0" class="cls-1" data-name="Path 9606" transform="translate(-297.987 -389.812)"/>
        <path id="Path_9607" d="M297.59 398.929a.268.268 0 0 1-.186-.463l3.083-2.889a.268.268 0 0 1 .369.39l-3.083 2.889a.264.264 0 0 1-.183.073zm0 0" class="cls-1" data-name="Path 9607" transform="translate(-294.428 -389.812)"/>
        <path id="Path_9608" d="M308.268 398.806h-13.929a1.339 1.339 0 0 1-1.339-1.339v-9.128a1.341 1.341 0 0 1 1.339-1.339h13.929a1.342 1.342 0 0 1 1.339 1.339v9.128a1.34 1.34 0 0 1-1.339 1.339zm-13.929-11.27a.8.8 0 0 0-.8.8v9.128a.8.8 0 0 0 .8.8h13.929a.8.8 0 0 0 .8-.8v-9.128a.8.8 0 0 0-.8-.8zm0 0" class="cls-1" data-name="Path 9608" transform="translate(-293 -387)"/>
        <path id="Path_9609" d="M301.478 394.46a1.49 1.49 0 0 1-.983-.353l-6.877-6a.269.269 0 0 1 .353-.4l6.875 6a1 1 0 0 0 1.263 0l6.866-5.988a.27.27 0 0 1 .38.026.266.266 0 0 1-.026.377l-6.867 5.988a1.49 1.49 0 0 1-.983.356zm0 0" class="cls-1" data-name="Path 9609" transform="translate(-293.174 -387.211)"/>
    </g>
</svg>
