<svg xmlns="http://www.w3.org/2000/svg" width="12.678" height="9.961" viewBox="0 0 12.678 9.961">
    <defs>
        <style>
            .cls-1{fill:#657c92}
        </style>
    </defs>
    <g id="Group_3448" data-name="Group 3448" transform="translate(-247 -350)">
        <path id="Path_9615" d="M248.217 353.07q.24.17 1.45 1.008t1.854 1.291l.3.216q.23.166.382.269c.1.069.224.145.368.23a2.132 2.132 0 0 0 .407.191 1.128 1.128 0 0 0 .354.064h.014a1.128 1.128 0 0 0 .354-.064 2.167 2.167 0 0 0 .407-.191 7.957 7.957 0 0 0 .75-.499l.3-.216 3.311-2.3a3.358 3.358 0 0 0 .863-.87 1.869 1.869 0 0 0 .347-1.068 1.141 1.141 0 0 0-1.132-1.131h-10.414a1.01 1.01 0 0 0-.839.368 1.428 1.428 0 0 0-.293.92 1.652 1.652 0 0 0 .389.966 3.508 3.508 0 0 0 .828.817zm0 0" class="cls-1" data-name="Path 9615"/>
        <path id="Path_9616" d="M258.97 380.206q-2.32 1.57-3.523 2.44-.4.3-.655.463a3.98 3.98 0 0 1-.668.34 2.036 2.036 0 0 1-.778.173h-.014a2.034 2.034 0 0 1-.778-.173 4.007 4.007 0 0 1-.669-.34q-.251-.166-.654-.463-.955-.7-3.516-2.44a3.752 3.752 0 0 1-.714-.616v5.617a1.135 1.135 0 0 0 1.132 1.132h10.413a1.135 1.135 0 0 0 1.132-1.132v-5.617a3.918 3.918 0 0 1-.708.616zm0 0" class="cls-1" data-name="Path 9616" transform="translate(0 -26.378)"/>
    </g>
</svg>
