<svg xmlns="http://www.w3.org/2000/svg" viewBox="0 0 24 18" width="24" height="18">
	<style>
		tspan { white-space:pre }
		.shp0 { fill: #f15758 } 
	</style>
	<g id="Group_3438">
		<g id="Group_3434">
			<g id="Group_3433">
				<path id="Path_9613" class="shp0" d="M0.45,10.06l6.94,7.48c0.08,0.08 0.18,0.15 0.28,0.2c0.11,0.05 0.22,0.07 0.34,0.07c0.12,0 0.23,-0.02 0.34,-0.07c0.11,-0.05 0.2,-0.11 0.28,-0.2l14.24,-14.78c0.08,-0.08 0.15,-0.18 0.2,-0.28c0.05,-0.11 0.07,-0.22 0.07,-0.34c0,-0.12 -0.02,-0.23 -0.07,-0.34c-0.05,-0.11 -0.11,-0.2 -0.2,-0.28l-1.24,-1.25c-0.08,-0.08 -0.18,-0.15 -0.29,-0.2c-0.11,-0.05 -0.22,-0.07 -0.34,-0.07c-0.12,0 -0.23,0.02 -0.34,0.07c-0.11,0.05 -0.2,0.11 -0.29,0.2h-0.09l-11.92,12.37c-0.04,0.04 -0.09,0.08 -0.14,0.1c-0.05,0.02 -0.11,0.04 -0.17,0.04c-0.06,0 -0.12,-0.01 -0.17,-0.04c-0.05,-0.02 -0.1,-0.06 -0.14,-0.1l-4.9,-5.25l-0.09,-0.09c-0.08,-0.08 -0.18,-0.15 -0.28,-0.2c-0.11,-0.05 -0.22,-0.07 -0.34,-0.07c-0.12,0 -0.23,0.02 -0.34,0.07c-0.11,0.05 -0.2,0.11 -0.28,0.2l-1.25,1.25c-0.04,0.04 -0.08,0.09 -0.11,0.13c-0.03,0.05 -0.06,0.1 -0.08,0.15c-0.02,0.05 -0.04,0.11 -0.05,0.16c-0.01,0.06 -0.02,0.11 -0.02,0.17c0,0.06 0.01,0.12 0.02,0.17c0.01,0.06 0.03,0.11 0.05,0.17c0.02,0.05 0.05,0.1 0.08,0.15c0.03,0.05 0.07,0.09 0.11,0.14z" />
			</g>
		</g>
	</g>
</svg>