<svg xmlns="http://www.w3.org/2000/svg" width="10.5" height="14" viewBox="0 0 10.5 14">
    <defs>
        <style>
            .cls-1{fill:#657c92}
        </style>
    </defs>
    <path id="Path_9617" d="M74.208 5.25h-.875V4.083a4.083 4.083 0 0 0-8.167 0V5.25h-.875a.292.292 0 0 0-.291.292v7.292A1.168 1.168 0 0 0 65.167 14h8.167a1.168 1.168 0 0 0 1.166-1.167V5.542a.292.292 0 0 0-.292-.292zm-4.269 4.438l.184 1.655a.292.292 0 0 1-.29.324h-1.166a.292.292 0 0 1-.29-.324l.184-1.655a1.154 1.154 0 0 1-.477-.938 1.167 1.167 0 1 1 2.333 0 1.154 1.154 0 0 1-.478.938zm1.644-4.438h-4.666V4.083a2.333 2.333 0 0 1 4.667 0z" class="cls-1" data-name="Path 9617" transform="translate(-64)"/>
</svg>
