<svg xmlns="http://www.w3.org/2000/svg" viewBox="0 0 27 27" width="27" height="27">
	<style>
		tspan { white-space:pre }
		.shp0 { fill: #f15758 } 
	</style>
	<g id="Group_3309">
		<g id="Group_3307">
			<g id="Group_3306">
				<path id="Path_9582" class="shp0" d="M0.78,8.95c-0.93,2.61 -1.04,5.45 -0.29,8.12c0.74,2.67 2.29,5.05 4.43,6.81c2.14,1.76 4.78,2.82 7.55,3.02c2.77,0.21 5.53,-0.45 7.91,-1.87c0.12,-0.07 0.21,-0.2 0.25,-0.34c0.04,-0.14 0.01,-0.29 -0.06,-0.41c-0.07,-0.12 -0.2,-0.21 -0.34,-0.25c-0.14,-0.04 -0.29,-0.01 -0.41,0.06c-5.16,3.09 -11.8,2.01 -15.72,-2.55c-3.93,-4.56 -4.01,-11.28 -0.19,-15.93c3.82,-4.65 10.42,-5.88 15.66,-2.92c5.24,2.96 7.58,9.26 5.56,14.92c-0.05,0.14 -0.04,0.29 0.02,0.42c0.06,0.13 0.17,0.23 0.31,0.28c0.14,0.05 0.29,0.04 0.42,-0.02c0.13,-0.06 0.23,-0.17 0.28,-0.31c1.23,-3.37 1.06,-7.1 -0.46,-10.35c-1.53,-3.25 -4.29,-5.75 -7.67,-6.96c-3.38,-1.21 -7.1,-1.01 -10.34,0.54c-3.24,1.55 -5.72,4.33 -6.9,7.72z" />
			</g>
		</g>
		<path id="Path_9583" class="shp0" d="M7.43,13.48c0,0.07 0.01,0.14 0.04,0.21c0.03,0.07 0.07,0.13 0.12,0.18c0.05,0.05 0.11,0.09 0.18,0.12c0.07,0.03 0.14,0.04 0.21,0.04l13.66,0c0.15,0 0.28,-0.06 0.39,-0.16c0.1,-0.1 0.16,-0.24 0.16,-0.39c0,-0.15 -0.06,-0.28 -0.16,-0.39c-0.1,-0.1 -0.24,-0.16 -0.39,-0.16h-13.66c-0.07,0 -0.14,0.01 -0.21,0.04c-0.07,0.03 -0.13,0.07 -0.18,0.12c-0.05,0.05 -0.09,0.11 -0.12,0.18c-0.03,0.07 -0.04,0.14 -0.04,0.21z" />
		<path id="Path_9584" class="shp0" d="M6.07,13.47l5.73,-5.74c0.1,-0.1 0.16,-0.24 0.16,-0.39c0,-0.15 -0.06,-0.28 -0.16,-0.39c-0.1,-0.1 -0.24,-0.16 -0.39,-0.16c-0.15,0 -0.28,0.06 -0.39,0.16l-6.12,6.12c-0.05,0.05 -0.09,0.11 -0.12,0.18c-0.03,0.07 -0.04,0.14 -0.04,0.21c0,0.07 0.01,0.14 0.04,0.21c0.03,0.07 0.07,0.13 0.12,0.18l6.13,6.12c0.1,0.1 0.24,0.16 0.39,0.16c0.15,0 0.28,-0.06 0.39,-0.16c0.1,-0.1 0.16,-0.24 0.16,-0.39c0,-0.15 -0.06,-0.28 -0.16,-0.39z" />
	</g>
</svg>