<svg xmlns="http://www.w3.org/2000/svg" width="13.416" height="18" viewBox="0 0 13.416 18">
    <defs>
        <style>
            .cls-1{fill:#657c92}
        </style>
    </defs>
    <g id="Group_3386" data-name="Group 3386" transform="translate(-184 -233)">
        <path id="Path_9610" d="M202.225 325.323a.906.906 0 0 0 .9.868h8.457a.906.906 0 0 0 .905-.868l.6-12.749h-11.466zm7.046-9.582a.368.368 0 0 1 .368-.368h.589a.368.368 0 0 1 .368.368v7.284a.368.368 0 0 1-.368.368h-.589a.368.368 0 0 1-.368-.368zm-2.575 0a.368.368 0 0 1 .368-.368h.589a.368.368 0 0 1 .368.368v7.284a.368.368 0 0 1-.368.368h-.589a.368.368 0 0 1-.368-.368zm-2.575 0a.368.368 0 0 1 .368-.368h.588a.368.368 0 0 1 .368.368v7.284a.368.368 0 0 1-.368.368h-.588a.368.368 0 0 1-.368-.368zm0 0" class="cls-1" data-name="Path 9610" transform="translate(-16.65 -75.191)"/>
        <path id="Path_9611" d="M196.847 233.927h-3.9v-.738a.19.19 0 0 0-.19-.19h-4.1a.19.19 0 0 0-.19.19v.737h-3.9a.569.569 0 0 0-.568.569v1.786h13.416V234.5a.568.568 0 0 0-.568-.568zm0 0" class="cls-1" data-name="Path 9611"/>
    </g>
</svg>
