<svg xmlns="http://www.w3.org/2000/svg" width="16.133" height="13.107" viewBox="0 0 16.133 13.107">
    <defs>
        <style>
            .cls-1{fill:#fef6c5}
        </style>
    </defs>
    <path id="Path_9604" d="M16.133 65.552a6.9 6.9 0 0 1-1.906.522 3.289 3.289 0 0 0 1.455-1.828 6.609 6.609 0 0 1-2.1.8 3.307 3.307 0 0 0-5.721 2.262 3.405 3.405 0 0 0 .077.754A9.362 9.362 0 0 1 1.123 64.6a3.308 3.308 0 0 0 1.016 4.42 3.266 3.266 0 0 1-1.494-.407v.036A3.322 3.322 0 0 0 3.3 71.9a3.3 3.3 0 0 1-.867.109 2.924 2.924 0 0 1-.626-.056 3.339 3.339 0 0 0 3.09 2.3 6.646 6.646 0 0 1-4.1 1.411A6.2 6.2 0 0 1 0 75.623a9.311 9.311 0 0 0 5.074 1.484 9.348 9.348 0 0 0 9.413-9.407c0-.146-.005-.287-.012-.428a6.6 6.6 0 0 0 1.658-1.72z" class="cls-1" data-name="Path 9604" transform="translate(0 -64)"/>
</svg>
