<svg xmlns="http://www.w3.org/2000/svg" width="18.229" height="18.229" viewBox="0 0 18.229 18.229">
    <defs>
        <style>
            .cls-1{fill:#fef6c5;fill-rule:evenodd}
        </style>
    </defs>
    <g id="Group_3368" data-name="Group 3368">
        <path id="Path_9605" d="M288.229 368.88a8.963 8.963 0 0 1-13.274 7.774L270 378.228l1.615-4.764a8.787 8.787 0 0 1-1.284-4.585 8.949 8.949 0 0 1 17.9 0zm-8.948-7.466a7.5 7.5 0 0 0-7.524 7.466 7.388 7.388 0 0 0 1.433 4.377l-.94 2.772 2.891-.918a7.485 7.485 0 1 0 4.14-13.7zm4.519 9.511c-.055-.091-.2-.145-.42-.254s-1.3-.636-1.5-.708-.348-.109-.493.109-.567.708-.7.853-.255.163-.475.054a6 6 0 0 1-1.764-1.08 6.622 6.622 0 0 1-1.221-1.507c-.127-.217-.013-.335.1-.444s.22-.254.329-.381a1.493 1.493 0 0 0 .22-.364.4.4 0 0 0-.019-.381c-.054-.109-.493-1.18-.676-1.616s-.365-.363-.493-.363-.274-.018-.42-.018a.808.808 0 0 0-.585.272 2.433 2.433 0 0 0-.767 1.815 4.213 4.213 0 0 0 .895 2.251 8.964 8.964 0 0 0 3.747 3.286c2.23.871 2.23.581 2.633.544a2.214 2.214 0 0 0 1.481-1.034 1.809 1.809 0 0 0 .129-1.034zm0 0" class="cls-1" data-name="Path 9605" transform="translate(-270 -360)"/>
    </g>
</svg>
